<svg xmlns="http://www.w3.org/2000/svg" version="1.1" xmlns:xlink="http://www.w3.org/1999/xlink" xmlns:svgjs="http://svgjs.com/svgjs" width="1000" height="1000"><rect width="1000" height="1000" rx="0" ry="0" fill="#000000" data-darkreader-inline-fill="" style="--darkreader-inline-fill:#000000;"></rect><g transform="matrix(10.81081081081081,0,0,10.81081081081081,100,100)"><svg xmlns="http://www.w3.org/2000/svg" version="1.1" xmlns:xlink="http://www.w3.org/1999/xlink" xmlns:svgjs="http://svgjs.com/svgjs" width="74" height="74"><svg width="74" height="74" viewBox="0 0 74 74" fill="none" xmlns="http://www.w3.org/2000/svg">
<circle cx="37" cy="37" r="37" fill="white" data-darkreader-inline-fill="" style="--darkreader-inline-fill:#181a1b;"></circle>
<path d="M48.009 20.2112V21.1092L32.6534 50.9673H37.3229C38.3407 50.9673 39.3584 50.8027 40.3761 50.4734C41.4238 50.1442 42.3816 49.6054 43.2497 48.857C44.1477 48.1087 44.9109 47.1209 45.5395 45.8937C46.1681 44.6365 46.5872 43.08 46.7967 41.2241H47.8294C47.7396 42.2418 47.6947 43.5589 47.6947 45.1753C47.6947 45.8637 47.7097 46.8366 47.7396 48.0937C47.7695 49.3509 47.8593 50.653 48.009 52C46.9015 51.9401 45.6892 51.9102 44.3722 51.9102C43.0551 51.8803 41.738 51.8653 40.421 51.8653C39.1339 51.8653 37.9366 51.8653 36.829 51.8653C34.8834 51.8653 32.848 51.8803 30.7227 51.9102C28.5975 51.9102 26.6069 51.9401 24.7511 52V51.102L40.1516 21.2439H35.3025C34.165 21.2439 33.1024 21.3935 32.1146 21.6929C31.1567 21.9922 30.2737 22.501 29.4655 23.2194C28.6573 23.9079 27.9838 24.8508 27.445 26.0481C26.9063 27.2155 26.5321 28.6822 26.3226 30.4482H25.2899C25.3497 30.0292 25.3797 29.5203 25.3797 28.9217C25.4096 28.323 25.4246 27.6944 25.4246 27.0359C25.4246 26.3474 25.3946 25.3746 25.3348 24.1174C25.3048 22.8602 25.23 21.5582 25.1103 20.2112C26.0981 20.2411 27.1906 20.271 28.3879 20.301C29.5853 20.3309 30.7676 20.3459 31.935 20.3459C33.1323 20.3459 34.2249 20.3459 35.2127 20.3459C37.2182 20.3459 39.3584 20.3459 41.6333 20.3459C43.9082 20.3159 46.0334 20.271 48.009 20.2112Z" fill="black" data-darkreader-inline-fill="" style="--darkreader-inline-fill:#000000;"></path>
</svg></svg></g></svg>